<svg width="14" height="16" viewBox="0 0 14 16" fill="none" xmlns="http://www.w3.org/2000/svg">
<path d="M13 6.89091C13 11.4727 7 15.4 7 15.4C7 15.4 1 11.4727 1 6.89091C1 5.32854 1.63214 3.83017 2.75736 2.72541C3.88258 1.62065 5.4087 1 7 1C8.5913 1 10.1174 1.62065 11.2426 2.72541C12.3679 3.83017 13 5.32854 13 6.89091Z" stroke="#708598" stroke-linecap="round" stroke-linejoin="round"/>
<path d="M6.99988 8.85483C8.10445 8.85483 8.99988 7.97567 8.99988 6.89119C8.99988 5.8067 8.10445 4.92755 6.99988 4.92755C5.89531 4.92755 4.99988 5.8067 4.99988 6.89119C4.99988 7.97567 5.89531 8.85483 6.99988 8.85483Z" stroke="#708598" stroke-linecap="round" stroke-linejoin="round"/>
</svg>
